PathFileType	4	(X/Y/Z)	Squat.trc	
DataRate	CameraRate	NumFrames	NumMarkers	Units	OrigDataRate	OrigDataStartFrame	OrigNumFrames	
100.00	100.00	25	6	mm	100.00	964	1542	
Frame#	Time	RAsis			SACR			LThighInferior			LThighLateral			LAsis			LThighSuperior			
		X1	Y1	Z1	X2	Y2	Z2	X3	Y3	Z3	X4	Y4	Z4	X5	Y5	Z5	X6	Y6	Z6	

193	1.920	546.97168	1207.41980	546.02594	421.30746	1056.08691	619.70081	202.45032	1357.37659	425.07336	239.45958	1314.54346	535.30365	298.95605	1224.06055	549.24860	203.86790	1218.39587	475.98355 
194	1.930	546.91693	1207.51721	544.93567	421.38562	1055.89636	618.32281	202.37338	1357.45520	424.42703	239.43268	1314.42554	534.62842	299.00653	1223.91565	548.26019	203.85150	1218.38879	475.06931 
195	1.940	546.88715	1207.53320	543.80194	421.48462	1055.72681	616.93738	202.32584	1357.56055	423.80762	239.37015	1314.37500	533.94434	298.99185	1223.79041	547.28870	203.77045	1218.44995	474.11984 
196	1.950	546.41907	1207.12695	542.78973	421.58859	1055.67566	615.57611	202.29338	1357.74561	423.26041	239.25539	1314.30908	533.21545	298.93338	1223.75049	546.34595	203.70320	1218.53479	473.14700 
197	1.960	545.00189	1205.96887	541.99646	421.54788	1055.73645	614.30377	202.26001	1357.95886	422.66821	239.17834	1314.21729	532.45319	298.93091	1223.72327	545.37408	203.71677	1218.56750	472.17780 
198	1.970	546.63092	1207.94556	540.53827	421.35272	1055.78821	613.00775	202.20586	1358.18042	421.98056	239.15852	1314.14758	531.74255	298.94458	1223.68396	544.37775	203.69115	1218.71375	471.27676 
199	1.980	546.57281	1207.87158	539.47815	421.26147	1055.78259	611.65448	202.15141	1358.46082	421.44022	239.15079	1314.04199	531.04547	298.96033	1223.67188	543.41986	203.60358	1218.89294	470.33209 
200	1.990	545.33862	1206.51709	539.07990	421.43344	1055.68469	610.37756	202.09328	1358.74402	420.95856	239.13235	1313.96582	530.34045	299.00812	1223.66626	542.48926	203.53906	1218.97595	469.35806 
201	2.000	546.88452	1208.43518	537.37854	421.65179	1055.53149	609.05109	201.99519	1359.03979	420.37720	239.11603	1313.94653	529.63373	299.04416	1223.64233	541.54865	203.47176	1219.12622	468.47919 
202	2.010	547.33325	1208.92249	536.11444	421.80130	1055.36621	607.57623	201.85294	1359.40308	419.84842	239.10284	1313.93237	528.93347	299.06314	1223.59900	540.60248	203.41740	1219.29871	467.61240 
203	2.020	547.26093	1208.64966	535.07104	421.79880	1055.19385	606.10297	201.71709	1359.72852	419.30005	239.08176	1313.92737	528.25879	299.08926	1223.55029	539.66498	203.39360	1219.46533	466.72006 
204	2.030	547.22083	1208.35718	533.91425	421.68304	1055.02966	604.74487	201.60696	1360.05884	418.69507	239.07150	1313.91199	527.57532	299.15079	1223.42590	538.68060	203.32149	1219.73010	465.85049 
205	2.040	547.10876	1208.01636	532.72284	421.68094	1054.85046	603.44745	201.56528	1360.42273	418.20667	239.09047	1313.89648	526.88831	299.16403	1223.30713	537.69318	203.27538	1219.92786	464.91711 
206	2.050	546.94397	1207.71313	531.61304	421.75046	1054.55566	602.01862	201.55690	1360.70715	417.74030	239.09767	1313.88501	526.20520	299.05020	1223.33228	536.77313	203.32739	1219.92676	463.80298 
207	2.060	546.97308	1207.55762	530.51196	421.79810	1054.20654	600.56903	201.49031	1360.95972	417.19232	239.06168	1313.82495	525.49139	298.98267	1223.26868	535.78619	203.35069	1219.91406	462.70651 
208	2.070	546.59808	1207.01453	529.59088	421.78052	1053.96570	599.18408	201.38208	1361.19836	416.58194	239.01665	1313.69507	524.71832	298.99786	1223.05872	534.69995	203.35744	1219.91638	461.68173 
209	2.080	545.06464	1205.46863	529.04810	421.55615	1053.86975	597.76587	201.29118	1361.35278	415.88190	238.95416	1313.52942	523.90912	298.96716	1222.96118	533.63965	203.38213	1219.86755	460.56503 
210	2.090	545.08221	1205.52368	528.00031	421.22229	1053.81531	596.39648	201.32373	1361.40173	415.14429	238.87865	1313.36194	523.11475	298.93381	1222.89282	532.57147	203.34918	1219.89282	459.47803 
211	2.100	545.11572	1205.65039	527.05212	421.10324	1053.64587	595.04034	201.40863	1361.48962	414.48404	238.86972	1313.18066	522.33411	298.97546	1222.65991	531.43579	203.28963	1219.96960	458.40720 
212	2.110	545.22717	1205.70801	526.07129	421.21371	1053.44873	593.59924	201.42842	1361.67285	413.90564	238.87491	1312.97510	521.55066	299.02899	1222.44531	530.30975	203.22971	1220.03333	457.32843 
213	2.120	545.23938	1205.49841	525.00684	421.26251	1053.35352	592.10303	201.38560	1361.83105	413.26038	238.80006	1312.76160	520.76392	299.03354	1222.34863	529.24280	203.14740	1220.14771	456.34552 
214	2.130	544.99524	1205.10364	523.88525	421.20853	1053.20178	590.65247	201.31552	1361.91101	412.49911	238.76697	1312.53430	519.99414	299.03018	1222.23389	528.20782	203.05351	1220.30103	455.38156 
215	2.140	544.69598	1204.77747	522.65887	421.12259	1052.94800	589.28394	201.65883	1362.32715	411.49802	238.76660	1312.34778	519.24689	299.02057	1222.09985	527.16284	202.94122	1220.37634	454.33389 
216	2.150	544.51569	1204.50500	521.39410	420.96109	1052.86877	587.88300	202.35950	1363.18188	410.33728	238.62032	1312.24609	518.51855	298.99734	1221.97437	526.10455	202.86221	1220.30469	453.24707 
217	2.160	544.48138	1204.28149	520.23608	420.79993	1052.93982	586.48224	202.27028	1363.30090	409.79337	238.41014	1312.11877	517.79376	298.98859	1221.83801	525.06360	202.86147	1220.22754	452.29352 
